<?xml version="1.0" encoding="utf-8"?>
<!-- Svg Vector Icons : http://www.onlinewebfonts.com/icon -->
<!DOCTYPE svg PUBLIC "-//W3C//DTD SVG 1.1//EN" "http://www.w3.org/Graphics/SVG/1.1/DTD/svg11.dtd">
<svg version="1.1" xmlns="http://www.w3.org/2000/svg" xmlns:xlink="http://www.w3.org/1999/xlink" x="0px" y="0px" viewBox="0 0 1000 1000" enable-background="new 0 0 1000 1000" xml:space="preserve">
<metadata> Svg Vector Icons : http://www.onlinewebfonts.com/icon </metadata>
<g><path d="M978,978.4c-15.9,15.9-41.8,15.9-57.7,0L676.9,734.9c-70.4,57.5-160.3,92-258.2,92C193,827,10,644,10,418.3C10,192.6,193,9.7,418.6,9.7c225.7,0,408.6,182.9,408.6,408.6c0,44.5-7.7,87.1-20.9,127.1c-4.3,12.1-16.8,35.5-44.1,33.7c-22.4-1.5-44.5-19.1-35.8-53.8l5.7-21.4c7.6-27.5,11.9-56.4,11.9-86.4c0-180.2-146.1-326.2-326.3-326.2c-180.2,0-326.2,146.1-326.2,326.2c0,180.2,146.1,326.3,326.2,326.3c89.3,0,170.2-36,229.1-94.1c0.3-0.3-18.8,18.5,0.6-0.9c19.4-19.4,42.1-15.9,59.1,1c17,17,140.4,140.4,140.4,140.4l0.3-0.3L978,920.6C994,936.6,994,962.4,978,978.4z"/></g>
</svg>